# xmcd CD database file
#
# Track frame offsets:
#	150
#	15204
#	26099
#	38981
#	58680
#	72067
#	89176
#	102861
#	117541
#	127050
#	141973
#	152374
#	166566
#	182817
#	193594
#	204755
#	217674
#	234588
#	246626
#	258459
#	271549
#	283294
#
# Disc length: 4013 seconds
#
# Revision: 1
# Processed by: cddbd v1.5.1PL2 Copyright (c) Steve Scherf et al.
# Submitted via: CDex 1.51
#
DISCID=390fab16
DTITLE=Various Artist - Easy Listening Country Favourites CD4
DYEAR=2000
DGENRE=Country
TTITLE0=The Norman Lubhoff Choir - Home on the Range
TTITLE1=Porter Wagoner - Green Green Grass of Home
TTITLE2=Bobby Bare - Detroit City
TTITLE3=Marty Robbins - El Paso
TTITLE4=Johny Cash and June Carter - If I Were a Carpenter
TTITLE5=Ray Price - For the Good Times
TTITLE6=Gene Martin - Roll Along Kentucky Moon
TTITLE7=The Jordanairs - Piece in the Valley
TTITLE8=Bobby Sykes - Tennessee Qaltz
TTITLE9=Jeannie C. Riley - Harper Valley P.T.A.
TTITLE10=Mel McDaniel - Louisiana Saturday Night
TTITLE11=Kenny Rogers - You are So Beautiful
TTITLE12=Floyd Cramer - Sometimes When We Touch
TTITLE13=Billy Jo Spears - Misty Blue
TTITLE14=Chet Atkins with Mullins And His Orchestra - Midnight
TTITLE15=Jim Reeves - Distant Drums
TTITLE16=Kenny Rogers - You Decorate My Live
TTITLE17=Floyd Cramer - If
TTITLE18=Wanda Jackson - Sweet Dreams (of You)
TTITLE19=Bobby Helms - My Special Angel 
TTITLE20=Suther Land Brothers and Quiver - Arms of Mary
TTITLE21=Lee Greenwood - The Wind beneath My Wings
EXTD=YEAR: 2000
EXTT0=
EXTT1=
EXTT2=
EXTT3=
EXTT4=
EXTT5=
EXTT6=
EXTT7=
EXTT8=
EXTT9=
EXTT10=
EXTT11=
EXTT12=
EXTT13=
EXTT14=
EXTT15=
EXTT16=
EXTT17=
EXTT18=
EXTT19=
EXTT20=
EXTT21=
PLAYORDER=
